<mxfile modified="2023-03-15T22:09:15.214Z" host="Electron" agent="5.0 (Windows NT 10.0; Win64; x64) AppleWebKit/537.36 (KHTML, like Gecko) draw.io/20.3.0 Chrome/104.0.5112.114 Electron/20.1.3 Safari/537.36" etag="6EthtIkseJbGFeeseUzI" compressed="false" version="20.3.0" type="device">
  <diagram id="Lqwl7Gq97XGOZVoY7BcH" name="Functionality/System Developer Information">
    <mxGraphModel dx="782" dy="517" grid="1" gridSize="10" guides="1" tooltips="1" connect="1" arrows="1" fold="1" page="1" pageScale="1" pageWidth="827" pageHeight="1169" math="0" shadow="0">
      <root>
        <mxCell id="yc5a0hYKxJW0FngyWG2j-0" />
        <mxCell id="yc5a0hYKxJW0FngyWG2j-1" parent="yc5a0hYKxJW0FngyWG2j-0" />
        <mxCell id="Pptf6ZFAArMArLxCmPMd-0" value="" style="fontStyle=1;align=center;verticalAlign=top;childLayout=stackLayout;horizontal=1;horizontalStack=0;resizeParent=1;resizeParentMax=0;resizeLast=0;marginBottom=0;strokeColor=#82b366;strokeWidth=2;fillColor=none;" parent="yc5a0hYKxJW0FngyWG2j-1" vertex="1">
          <mxGeometry x="360" y="120" width="120" height="63" as="geometry" />
        </mxCell>
        <mxCell id="Pptf6ZFAArMArLxCmPMd-1" value="Create Developer&amp;nbsp;&lt;br&gt;Information" style="html=1;align=left;spacingLeft=4;verticalAlign=middle;strokeColor=none;fillColor=none;fontStyle=1" parent="Pptf6ZFAArMArLxCmPMd-0" vertex="1">
          <mxGeometry width="120" height="30" as="geometry" />
        </mxCell>
        <mxCell id="Pptf6ZFAArMArLxCmPMd-2" value="" style="shape=ellipse;" parent="Pptf6ZFAArMArLxCmPMd-1" vertex="1">
          <mxGeometry x="1" width="10" height="16" relative="1" as="geometry">
            <mxPoint x="-25" y="7" as="offset" />
          </mxGeometry>
        </mxCell>
        <mxCell id="Pptf6ZFAArMArLxCmPMd-3" value="" style="line;strokeWidth=1;fillColor=none;align=left;verticalAlign=middle;spacingTop=-1;spacingLeft=3;spacingRight=3;rotatable=0;labelPosition=right;points=[];portConstraint=eastwest;" parent="Pptf6ZFAArMArLxCmPMd-0" vertex="1">
          <mxGeometry y="30" width="120" height="8" as="geometry" />
        </mxCell>
        <mxCell id="Pptf6ZFAArMArLxCmPMd-4" value="." style="html=1;align=center;spacingLeft=4;verticalAlign=top;strokeColor=none;fillColor=none;" parent="Pptf6ZFAArMArLxCmPMd-0" vertex="1">
          <mxGeometry y="38" width="120" height="25" as="geometry" />
        </mxCell>
        <mxCell id="Pptf6ZFAArMArLxCmPMd-18" style="edgeStyle=none;rounded=0;orthogonalLoop=1;jettySize=auto;html=1;entryX=0;entryY=1;entryDx=0;entryDy=0;endArrow=open;endFill=0;" parent="yc5a0hYKxJW0FngyWG2j-1" source="Pptf6ZFAArMArLxCmPMd-5" target="Pptf6ZFAArMArLxCmPMd-1" edge="1">
          <mxGeometry relative="1" as="geometry" />
        </mxCell>
        <mxCell id="Pptf6ZFAArMArLxCmPMd-19" style="edgeStyle=none;rounded=0;orthogonalLoop=1;jettySize=auto;html=1;entryX=0;entryY=1;entryDx=0;entryDy=0;endArrow=open;endFill=0;exitX=1;exitY=0.75;exitDx=0;exitDy=0;" parent="yc5a0hYKxJW0FngyWG2j-1" source="Pptf6ZFAArMArLxCmPMd-5" target="Pptf6ZFAArMArLxCmPMd-7" edge="1">
          <mxGeometry relative="1" as="geometry" />
        </mxCell>
        <mxCell id="IWEzCotlKrez48bfHSj5-1" value="is a" style="edgeStyle=none;rounded=0;orthogonalLoop=1;jettySize=auto;html=1;entryX=1;entryY=0.5;entryDx=0;entryDy=0;endArrow=block;endFill=0;" parent="yc5a0hYKxJW0FngyWG2j-1" source="Pptf6ZFAArMArLxCmPMd-5" target="IWEzCotlKrez48bfHSj5-0" edge="1">
          <mxGeometry relative="1" as="geometry" />
        </mxCell>
        <mxCell id="Pptf6ZFAArMArLxCmPMd-5" value="&lt;p style=&quot;line-height: 100%&quot;&gt;&amp;lt;&amp;lt;actor&amp;gt;&amp;gt;&lt;br&gt;&lt;br&gt;&lt;b&gt;Developer&lt;/b&gt;&lt;/p&gt;" style="text;html=1;align=center;verticalAlign=middle;dashed=0;strokeColor=#000000;strokeWidth=2;" parent="yc5a0hYKxJW0FngyWG2j-1" vertex="1">
          <mxGeometry x="240" y="123" width="80" height="60" as="geometry" />
        </mxCell>
        <mxCell id="Pptf6ZFAArMArLxCmPMd-6" value="" style="fontStyle=1;align=center;verticalAlign=top;childLayout=stackLayout;horizontal=1;horizontalStack=0;resizeParent=1;resizeParentMax=0;resizeLast=0;marginBottom=0;strokeColor=#82b366;strokeWidth=2;fillColor=none;" parent="yc5a0hYKxJW0FngyWG2j-1" vertex="1">
          <mxGeometry x="360" y="210" width="120" height="63" as="geometry" />
        </mxCell>
        <mxCell id="Pptf6ZFAArMArLxCmPMd-7" value="Edit Developer&amp;nbsp;&lt;br&gt;Information" style="html=1;align=left;spacingLeft=4;verticalAlign=middle;strokeColor=none;fillColor=none;fontStyle=1" parent="Pptf6ZFAArMArLxCmPMd-6" vertex="1">
          <mxGeometry width="120" height="30" as="geometry" />
        </mxCell>
        <mxCell id="Pptf6ZFAArMArLxCmPMd-8" value="" style="shape=ellipse;" parent="Pptf6ZFAArMArLxCmPMd-7" vertex="1">
          <mxGeometry x="1" width="10" height="16" relative="1" as="geometry">
            <mxPoint x="-25" y="7" as="offset" />
          </mxGeometry>
        </mxCell>
        <mxCell id="Pptf6ZFAArMArLxCmPMd-9" value="" style="line;strokeWidth=1;fillColor=none;align=left;verticalAlign=middle;spacingTop=-1;spacingLeft=3;spacingRight=3;rotatable=0;labelPosition=right;points=[];portConstraint=eastwest;" parent="Pptf6ZFAArMArLxCmPMd-6" vertex="1">
          <mxGeometry y="30" width="120" height="8" as="geometry" />
        </mxCell>
        <mxCell id="Pptf6ZFAArMArLxCmPMd-10" value="." style="html=1;align=center;spacingLeft=4;verticalAlign=top;strokeColor=none;fillColor=none;" parent="Pptf6ZFAArMArLxCmPMd-6" vertex="1">
          <mxGeometry y="38" width="120" height="25" as="geometry" />
        </mxCell>
        <mxCell id="Pptf6ZFAArMArLxCmPMd-11" value="" style="fontStyle=1;align=center;verticalAlign=top;childLayout=stackLayout;horizontal=1;horizontalStack=0;resizeParent=1;resizeParentMax=0;resizeLast=0;marginBottom=0;strokeColor=#82b366;strokeWidth=2;fillColor=none;" parent="yc5a0hYKxJW0FngyWG2j-1" vertex="1">
          <mxGeometry x="360" y="300" width="120" height="63" as="geometry" />
        </mxCell>
        <mxCell id="Pptf6ZFAArMArLxCmPMd-12" value="View Developer&amp;nbsp;&lt;br&gt;Information" style="html=1;align=left;spacingLeft=4;verticalAlign=middle;strokeColor=none;fillColor=none;fontStyle=1" parent="Pptf6ZFAArMArLxCmPMd-11" vertex="1">
          <mxGeometry width="120" height="30" as="geometry" />
        </mxCell>
        <mxCell id="Pptf6ZFAArMArLxCmPMd-13" value="" style="shape=ellipse;" parent="Pptf6ZFAArMArLxCmPMd-12" vertex="1">
          <mxGeometry x="1" width="10" height="16" relative="1" as="geometry">
            <mxPoint x="-25" y="7" as="offset" />
          </mxGeometry>
        </mxCell>
        <mxCell id="Pptf6ZFAArMArLxCmPMd-14" value="" style="line;strokeWidth=1;fillColor=none;align=left;verticalAlign=middle;spacingTop=-1;spacingLeft=3;spacingRight=3;rotatable=0;labelPosition=right;points=[];portConstraint=eastwest;" parent="Pptf6ZFAArMArLxCmPMd-11" vertex="1">
          <mxGeometry y="30" width="120" height="8" as="geometry" />
        </mxCell>
        <mxCell id="Pptf6ZFAArMArLxCmPMd-15" value="." style="html=1;align=center;spacingLeft=4;verticalAlign=top;strokeColor=none;fillColor=none;" parent="Pptf6ZFAArMArLxCmPMd-11" vertex="1">
          <mxGeometry y="38" width="120" height="25" as="geometry" />
        </mxCell>
        <mxCell id="Pptf6ZFAArMArLxCmPMd-17" style="edgeStyle=none;rounded=0;orthogonalLoop=1;jettySize=auto;html=1;entryX=0;entryY=0;entryDx=0;entryDy=0;endArrow=open;endFill=0;" parent="yc5a0hYKxJW0FngyWG2j-1" source="Pptf6ZFAArMArLxCmPMd-16" target="Pptf6ZFAArMArLxCmPMd-15" edge="1">
          <mxGeometry relative="1" as="geometry" />
        </mxCell>
        <mxCell id="Pptf6ZFAArMArLxCmPMd-16" value="&lt;p style=&quot;line-height: 100%&quot;&gt;&amp;lt;&amp;lt;actor&amp;gt;&amp;gt;&lt;br&gt;&lt;br&gt;&lt;b&gt;UnAuthenticated&lt;br&gt;User&lt;/b&gt;&lt;/p&gt;" style="text;html=1;align=center;verticalAlign=middle;dashed=0;strokeColor=#000000;strokeWidth=2;" parent="yc5a0hYKxJW0FngyWG2j-1" vertex="1">
          <mxGeometry x="120" y="300" width="80" height="60" as="geometry" />
        </mxCell>
        <mxCell id="IWEzCotlKrez48bfHSj5-0" value="&lt;p style=&quot;line-height: 100%&quot;&gt;&amp;lt;&amp;lt;actor&amp;gt;&amp;gt;&lt;br&gt;&lt;br&gt;&lt;b&gt;UnAudited&lt;br&gt;User&lt;/b&gt;&lt;/p&gt;" style="text;html=1;align=center;verticalAlign=middle;dashed=0;strokeColor=#000000;strokeWidth=2;" parent="yc5a0hYKxJW0FngyWG2j-1" vertex="1">
          <mxGeometry x="120" y="123" width="80" height="60" as="geometry" />
        </mxCell>
        <mxCell id="kPOqFtW-1OM2uTJKAmzi-0" value="Title" parent="yc5a0hYKxJW0FngyWG2j-0" visible="0" />
        <mxCell id="yc5a0hYKxJW0FngyWG2j-11" value="&lt;font style=&quot;font-size: 12px&quot;&gt;Diagram: Base System Logical Module -&amp;nbsp;Functionality -&amp;nbsp;System Developer Information&lt;/font&gt;" style="text;strokeColor=none;fillColor=none;html=1;fontSize=12;fontStyle=2;verticalAlign=middle;align=left;shadow=0;glass=0;comic=0;opacity=30;fontColor=#808080;" parent="kPOqFtW-1OM2uTJKAmzi-0" vertex="1">
          <mxGeometry x="120" y="380" width="520" height="20" as="geometry" />
        </mxCell>
        <mxCell id="kPOqFtW-1OM2uTJKAmzi-1" value="Information" parent="yc5a0hYKxJW0FngyWG2j-0" visible="0" />
        <UserObject label="" tooltip="ABOUT&#xa;&#xa;The sponsor is the organisation that is paying for the development of the system.&#xa;&#xa;&#xa;&#xa;Note that a User Interface will most probably want to refer to the Reseller information." id="yc5a0hYKxJW0FngyWG2j-12">
          <mxCell style="shape=image;html=1;verticalAlign=top;verticalLabelPosition=bottom;labelBackgroundColor=#ffffff;imageAspect=0;aspect=fixed;image=https://cdn1.iconfinder.com/data/icons/hawcons/32/699014-icon-28-information-128.png;shadow=0;dashed=0;fontFamily=Helvetica;fontSize=12;fontColor=#000000;align=center;strokeColor=#000000;fillColor=#505050;dashPattern=1 1;" parent="kPOqFtW-1OM2uTJKAmzi-1" vertex="1">
            <mxGeometry x="660" y="380" width="20" height="20" as="geometry" />
          </mxCell>
        </UserObject>
        <mxCell id="kPOqFtW-1OM2uTJKAmzi-2" value="Notes" parent="yc5a0hYKxJW0FngyWG2j-0" />
        <mxCell id="yc5a0hYKxJW0FngyWG2j-10" value="Information about the organisation that developed the solution for the Sponsor.&amp;nbsp;&lt;br&gt;&lt;br&gt;Includes Title, Description, Date created." style="shape=note;whiteSpace=wrap;html=1;size=14;verticalAlign=top;align=left;spacingTop=-6;strokeWidth=1;fillColor=none;fontSize=12;" parent="kPOqFtW-1OM2uTJKAmzi-2" vertex="1">
          <mxGeometry x="520" y="123" width="160" height="157" as="geometry" />
        </mxCell>
      </root>
    </mxGraphModel>
  </diagram>
</mxfile>
